<svg xmlns="http://www.w3.org/2000/svg" xmlns:xlink="http://www.w3.org/1999/xlink" contentStyleType="text/css" data-diagram-type="STATE" height="419px" preserveAspectRatio="none" style="width:659px;height:419px;background:#FFFFFF;" version="1.1" viewBox="0 0 659 419" width="659px" zoomAndPan="magnify"><defs/><g><rect fill="#F1F1F1" height="40" rx="12.5" ry="12.5" style="stroke:#181818;stroke-width:0.5;" width="97.3496" x="7" y="138"/><text fill="#000000" font-family="sans-serif" font-size="14" lengthAdjust="spacing" textLength="87.3496" x="12" y="162.8467">image cr&#233;&#233;e</text><rect fill="#F1F1F1" height="40" rx="12.5" ry="12.5" style="stroke:#181818;stroke-width:0.5;" width="145.6455" x="307.85" y="138"/><text fill="#000000" font-family="sans-serif" font-size="14" lengthAdjust="spacing" textLength="135.6455" x="312.85" y="162.8467">conteneur d&#233;marr&#233;</text><rect fill="#F1F1F1" height="40" rx="12.5" ry="12.5" style="stroke:#181818;stroke-width:0.5;" width="128.6104" x="301.37" y="290"/><text fill="#000000" font-family="sans-serif" font-size="14" lengthAdjust="spacing" textLength="118.6104" x="306.37" y="314.8467">conteneur arr&#234;t&#233;</text><rect fill="#F1F1F1" height="40" rx="12.5" ry="12.5" style="stroke:#181818;stroke-width:0.5;" width="151.6406" x="501.85" y="290"/><text fill="#000000" font-family="sans-serif" font-size="14" lengthAdjust="spacing" textLength="141.6406" x="506.85" y="314.8467">conteneur supprim&#233;</text><ellipse cx="55.67" cy="16" fill="#222222" rx="10" ry="10" style="stroke:#222222;stroke-width:1;"/><ellipse cx="577.67" cy="402" fill="none" rx="11" ry="11" style="stroke:#222222;stroke-width:1;"/><ellipse cx="577.67" cy="402" fill="#222222" rx="6" ry="6" style="stroke:#222222;stroke-width:1;"/><!--link *start* to created--><g class="link" data-entity-1=".start." data-entity-2="created" data-source-line="8" data-uid="lnk3" id="link_.start._created"><path d="M55.67,26.19 C55.67,48.69 55.67,100.99 55.67,131.59" fill="none" id="*start*-to-created" style="stroke:#181818;stroke-width:1;"/><polygon fill="#181818" points="55.67,137.59,59.67,128.59,55.67,132.59,51.67,128.59,55.67,137.59" style="stroke:#181818;stroke-width:1;"/><text fill="#000000" font-family="sans-serif" font-size="13" lengthAdjust="spacing" textLength="31.9668" x="115.6861" y="69.0669">build</text><path d="M60.67,78.1328 L60.67,103.1328 L201.67,103.1328 L201.67,88.1328 L191.67,78.1328 L60.67,78.1328" fill="#FEFFDD" style="stroke:#181818;stroke-width:0.5;"/><path d="M191.67,78.1328 L191.67,88.1328 L201.67,88.1328 L191.67,78.1328" fill="#FEFFDD" style="stroke:#181818;stroke-width:0.5;"/><text fill="#000000" font-family="sans-serif" font-size="13" lengthAdjust="spacing" textLength="120.999" x="66.67" y="95.1997">initializeCommand</text></g><!--link created to started--><g class="link" data-entity-1="created" data-entity-2="started" data-source-line="12" data-uid="lnk4" id="link_created_started"><path d="M104.68,158 C158.5,158 239.49,158 301.42,158" fill="none" id="created-to-started" style="stroke:#181818;stroke-width:1;"/><polygon fill="#181818" points="307.42,158,298.42,154,302.42,158,298.42,162,307.42,158" style="stroke:#181818;stroke-width:1;"/><text fill="#000000" font-family="sans-serif" font-size="13" lengthAdjust="spacing" textLength="16.4912" x="198.0407" y="116.0669">up</text><path d="M126.6,125.1328 L126.6,150.1328 L285.6,150.1328 L285.6,135.1328 L275.6,125.1328 L126.6,125.1328" fill="#FEFFDD" style="stroke:#181818;stroke-width:0.5;"/><path d="M275.6,125.1328 L275.6,135.1328 L285.6,135.1328 L275.6,125.1328" fill="#FEFFDD" style="stroke:#181818;stroke-width:0.5;"/><text fill="#000000" font-family="sans-serif" font-size="13" lengthAdjust="spacing" textLength="138.3726" x="132.6" y="142.1997">postCreateCommand</text></g><!--link started to stoped--><g class="link" data-entity-1="started" data-entity-2="stoped" data-source-line="16" data-uid="lnk5" id="link_started_stoped"><path d="M337.32,178.31 C325.57,185.79 314.28,195.61 307.67,208 C296.8,228.39 297.94,239.04 307.67,260 C313.17,271.84 318.3458,278.1768 328.4458,285.9968" fill="none" id="started-to-stoped" style="stroke:#181818;stroke-width:1;"/><polygon fill="#181818" points="333.19,289.67,328.5225,280.9974,329.2365,286.609,323.6249,287.323,333.19,289.67" style="stroke:#181818;stroke-width:1;"/><text fill="#000000" font-family="sans-serif" font-size="13" lengthAdjust="spacing" textLength="28.0757" x="308.67" y="238.5669">stop</text></g><!--link stoped to started--><g class="link" data-entity-1="stoped" data-entity-2="started" data-source-line="17" data-uid="lnk6" id="link_stoped_started"><path d="M367.6,289.77 C370.47,261.01 375.263,213.0702 378.143,184.2702" fill="none" id="stoped-to-started" style="stroke:#181818;stroke-width:1;"/><polygon fill="#181818" points="378.74,178.3,373.8643,186.8573,378.2425,183.2752,381.8246,187.6533,378.74,178.3" style="stroke:#181818;stroke-width:1;"/><text fill="#000000" font-family="sans-serif" font-size="13" lengthAdjust="spacing" textLength="30.2783" x="439.3551" y="221.0669">start</text><path d="M380.67,230.1328 L380.67,255.1328 L527.67,255.1328 L527.67,240.1328 L517.67,230.1328 L380.67,230.1328" fill="#FEFFDD" style="stroke:#181818;stroke-width:0.5;"/><path d="M517.67,230.1328 L517.67,240.1328 L527.67,240.1328 L517.67,230.1328" fill="#FEFFDD" style="stroke:#181818;stroke-width:0.5;"/><text fill="#000000" font-family="sans-serif" font-size="13" lengthAdjust="spacing" textLength="126.6484" x="386.67" y="247.1997">postStartCommand</text></g><!--link stoped to dropped--><g class="link" data-entity-1="stoped" data-entity-2="dropped" data-source-line="21" data-uid="lnk7" id="link_stoped_dropped"><path d="M430.43,310 C452.84,310 472.16,310 495.4,310" fill="none" id="stoped-to-dropped" style="stroke:#181818;stroke-width:1;"/><polygon fill="#181818" points="501.4,310,492.4,306,496.4,310,492.4,314,501.4,310" style="stroke:#181818;stroke-width:1;"/><text fill="#000000" font-family="sans-serif" font-size="13" lengthAdjust="spacing" textLength="35.0771" x="448.42" y="303.0669">down</text></g><!--link started to dropped--><g class="link" data-entity-1="started" data-entity-2="dropped" data-source-line="22" data-uid="lnk8" id="link_started_dropped"><path d="M453.71,167.59 C483.17,174.35 515.59,186.43 538.67,208 C562.02,229.82 570.5749,261.2814 574.3449,283.9314" fill="none" id="started-to-dropped" style="stroke:#181818;stroke-width:1;"/><polygon fill="#181818" points="575.33,289.85,577.798,280.3154,574.5091,284.9179,569.9066,281.6289,575.33,289.85" style="stroke:#181818;stroke-width:1;"/><text fill="#000000" font-family="sans-serif" font-size="13" lengthAdjust="spacing" textLength="35.0771" x="568.67" y="238.5669">down</text></g><!--link dropped to *end*--><g class="link" data-entity-1="dropped" data-entity-2=".end." data-source-line="23" data-uid="lnk10" id="link_dropped_.end."><path d="M577.67,330.09 C577.67,348.66 577.67,370.17 577.67,384.87" fill="none" id="dropped-to-*end*" style="stroke:#181818;stroke-width:1;"/><polygon fill="#181818" points="577.67,390.87,581.67,381.87,577.67,385.87,573.67,381.87,577.67,390.87" style="stroke:#181818;stroke-width:1;"/></g><!--SRC=[RP0nRiCm34LtdOB8MC0Nw935H-WOT51D8YLgaO8a8qXkv5p35olbMa6RUYFn7nyfVJ8IK8Zb2aXvI1mBgpYNYoy41mx-J32aPLvcEe3FLfCbs811fP3Gb02NEVXav8fPd7QnYjpBWzAu1-KfniHXep1fh9WxlRn3rntR3V0A7nEFw4HjN0L6bYy7mCA5_SWtwZK4B-X842hasgH9jWjDCiLdGzHS-XNzPsXZgw5URu9QkAth_gZNQi_-LeCT-O_ZsDvi2jIB_DxwbBIsxhN_-GO0]--></g></svg>