<svg version="1.2" xmlns="http://www.w3.org/2000/svg" viewBox="0 0 48 49" width="4rem" height="4rem">
	<title>astronaut-helmet</title>
	<style>
		.s0 { fill: #ffffff } 
	</style>
	<path class="s0" d="m41 4.3c0-1.2 0.7-2.4 1.8-3 1.2-0.5 2.5-0.4 3.5 0.4 1 0.7 1.5 2 1.3 3.2-0.3 1.3-1.2 2.3-2.4 2.6v8.6h-1.8v-8.6q-0.5-0.1-0.9-0.4-0.5-0.3-0.8-0.8-0.4-0.4-0.5-0.9-0.2-0.5-0.2-1.1z"/>
	<path class="s0" d="m30.7 3.5v8.6c5.7 2.5 9.7 7.8 9.7 13.9 0 8.4-7.6 13.3-16.8 13.3-9.3 0-17-4.9-17-13.3 0-6.1 4-11.3 9.7-13.8v-8.7c-7.8 3-12 11-12 20.3 0 12 8.6 18.8 19.3 18.8 10.6 0 19.2-6.8 19.2-18.8 0-9.4-4.3-17.3-12.1-20.3z"/>
	<path class="s0" d="m29.5 11.7v-8.7q-0.7-0.2-1.4-0.3-0.8-0.2-1.5-0.3-0.8-0.1-1.5-0.2-0.8-0.1-1.6-0.1-0.7 0-1.5 0.1-0.8 0-1.5 0.2-0.8 0.1-1.5 0.2-0.7 0.2-1.5 0.4v8.7q1.5-0.5 3-0.8 1.5-0.3 3.1-0.3 1.5 0 3 0.3 1.5 0.3 3 0.8z"/>
	<path class="s0" d="m19.8 13.8q-1.4 0.4-2.7 1-1.3 0.7-2.4 1.6-1.2 0.9-2.1 2-1 1.1-1.7 2.4-0.1 0.1-0.1 0.2 0 0.1 0.1 0.3 0 0.1 0.1 0.2 0.1 0.1 0.3 0.1l2.6 0.8q0.1 0.1 0.2 0.1 0.1 0 0.2-0.1 0.1 0 0.2-0.1 0.1-0.1 0.1-0.2 0.5-0.9 1.2-1.6 0.6-0.8 1.4-1.5 0.8-0.6 1.7-1.1 1-0.4 1.9-0.7 0.2 0 0.2-0.1 0.1-0.1 0.2-0.2 0.1-0.1 0.1-0.2 0-0.1 0-0.2l-0.7-2.2q0-0.2-0.1-0.3-0.1-0.1-0.2-0.1-0.1-0.1-0.2-0.1-0.1 0-0.3 0z"/>
	<path class="s0" d="m0 26.3v1.2q0 0.6 0.2 1.2 0.3 0.5 0.7 0.9 0.4 0.5 1 0.7 0.5 0.2 1.1 0.2h1q-0.2-0.5-0.3-1-0.1-0.5-0.2-1.1-0.1-0.5-0.2-1-0.1-0.6-0.1-1.1z"/>
	<path class="s0" d="m3 23.8q0-0.8 0.1-1.7 0-0.8 0.1-1.6 0.1-0.8 0.2-1.6 0.2-0.8 0.3-1.6h-0.7q-0.6 0-1.1 0.2-0.6 0.2-1 0.6-0.4 0.5-0.7 1-0.2 0.6-0.2 1.2v4.8h3z"/>
	<path class="s0" d="m43 30.5h1q0.6 0 1.2-0.2 0.5-0.2 1-0.6 0.4-0.5 0.6-1 0.2-0.6 0.2-1.2v-1.2h-3.1q-0.1 0.6-0.2 1.1 0 0.5-0.1 1.1-0.1 0.5-0.3 1-0.1 0.5-0.3 1z"/>
	<path class="s0" d="m44 17.3h-0.7q0.2 0.8 0.3 1.6 0.1 0.8 0.2 1.6 0.1 0.8 0.2 1.6 0 0.9 0 1.7 0 0.1 0 0.3 0 0.2 0 0.3 0 0.2 0 0.4-0.1 0.1-0.1 0.3h3v-4.8q0.1-0.6-0.2-1.2-0.2-0.5-0.6-1-0.4-0.4-1-0.6-0.5-0.2-1.1-0.2z"/>
	<path class="s0" d="m37.9 39.4q-1.6 1.3-3.3 2.2-1.6 1-3.5 1.6-1.8 0.6-3.7 0.9-2 0.3-3.9 0.3-1.9 0-3.9-0.3-1.9-0.3-3.7-0.9-1.8-0.6-3.5-1.6-1.7-0.9-3.2-2.2l-0.9 0.9q-0.1 0.1-0.1 0.2-0.1 0.1-0.1 0.2 0 0.1 0.1 0.2 0 0.1 0.1 0.2c3.5 4.5 9 6.9 15.2 6.9 6.2 0 11.7-2.4 15.3-6.9q0-0.1 0.1-0.2 0-0.1 0-0.2 0-0.1-0.1-0.2 0-0.1-0.1-0.2z"/>
</svg>