<svg version="1.2" xmlns="http://www.w3.org/2000/svg" viewBox="0 0 280 280" width="5rem" height="5rem">
	<title>ivan</title>
	<defs>
		<clipPath clipPathUnits="userSpaceOnUse" id="cp1">
			<path d="m164 180.61v18.39h4c39.76 0 72 32.24 72 72v9h-200v-9c0-39.76 32.24-72 72-72h4v-18.39c-17.24-8.19-29.63-24.92-31.69-44.73-5.83-0.82-10.31-5.83-10.31-11.88v-14c0-5.95 4.32-10.88 10-11.83v-6.17c0-30.93 25.07-56 56-56 30.93 0 56 25.07 56 56v6.17c5.68 0.95 10 5.88 10 11.83v14c0 6.05-4.48 11.06-10.31 11.88-2.06 19.81-14.45 36.54-31.69 44.73z"/>
		</clipPath>
		<clipPath clipPathUnits="userSpaceOnUse" id="cp2">
			<path d="m164 180.61v18.39h4c39.76 0 72 32.24 72 72v9h-200v-9c0-39.76 32.24-72 72-72h4v-18.39c-17.24-8.19-29.63-24.92-31.69-44.73-5.83-0.82-10.31-5.83-10.31-11.88v-14c0-5.95 4.32-10.88 10-11.83v-6.17c0-30.93 25.07-56 56-56 30.93 0 56 25.07 56 56v6.17c5.68 0.95 10 5.88 10 11.83v14c0 6.05-4.48 11.06-10.31 11.88-2.06 19.81-14.45 36.54-31.69 44.73z"/>
		</clipPath>
		<clipPath clipPathUnits="userSpaceOnUse" id="cp3">
			<path d="m173.96 199.29c37.95 1.26 70.14 34.79 69.16 71.33v9.38h-204.72l-0.3-9.38c0-38.1 30.78-69.36 68.24-71.91-0.03 0.37 0.66 1.26 0.66 1.64 0 11.86 15 21.48 33.5 21.48 18.5 0 33.5-9.62 33.5-21.48 0-0.36-0.39-1.07-0.04-1.06z"/>
		</clipPath>
		<clipPath clipPathUnits="userSpaceOnUse" id="cp4">
			<path d="m173.96 199.29c36.98 3.03 66.04 34 66.04 71.76v8.95h-200v-8.95c0-38.1 29.59-69.29 67.05-71.83q-0.05 0.56-0.05 1.13c0 11.86 15 21.48 33.5 21.48 18.5 0 33.5-9.62 33.5-21.48q0-0.53-0.04-1.06z"/>
		</clipPath>
		<clipPath clipPathUnits="userSpaceOnUse" id="cp5">
			<path d="m8 0h264v280h-264z"/>
		</clipPath>
		<clipPath clipPathUnits="userSpaceOnUse" id="cp6">
			<path d="m196.65 114.13v20.36c-0.04 15.28-9.59 38.5-30.76 47.23-5.18 2.14-16.91 5.28-25.89 5.28-8.98 0-20.71-3.47-25.89-5.61-21.17-8.73-30.72-31.62-30.76-46.9v-20.36c0 0-1.09-16.13 0.57-16.13 3.41 8.4 2.09 18.86 2.72 27.68 0.52 7.16 2.02 17.91 8.39 22.53 3.25 2.37 9.18 6.35 13.43 5.24 2.93-0.76 3.24-9.16 7.08-12.3 4.37-3.57 9.82-5.13 15.31-4.89 2.37 0.1 7.17 0.08 9.15 1.9 1.98-1.82 6.78-1.8 9.15-1.9 5.49-0.24 10.94 1.32 15.31 4.89 3.84 3.14 4.15 11.54 7.08 12.3 4.25 1.11 10.18-2.87 13.43-5.24 6.37-4.62 7.87-15.37 8.39-22.53 0.63-8.82-0.69-19.28 2.72-27.68 1.66 0 0.57 16.13 0.57 16.13zm-32.93 39.29c-1.23-3.38-3.23-7.1-6.87-8.17-3.89-1.15-9.35-0.01-13.27-0.79-1.26-0.26-2.65-0.71-3.58-1.46-0.93 0.75-2.32 1.2-3.59 1.46-3.91 0.78-9.37-0.36-13.26 0.79-3.64 1.07-5.64 4.79-6.87 8.17-2.36 6.49 1.57 12.44 6.29 16.75 2.51 2.29 5.19 3.32 8.58 2.6 0.58-0.12 2.95-4.54 8.85-4.54 5.9 0 8.27 4.42 8.85 4.54 3.39 0.72 6.06-0.31 8.58-2.6 4.72-4.31 8.65-10.26 6.29-16.75z"/>
		</clipPath>
		<clipPath clipPathUnits="userSpaceOnUse" id="cp7">
			<path d="m187.15 39.92c-2.76-2.82-5.96-5.21-9.08-7.61q-1.04-0.79-2.06-1.6c-0.15-0.12-1.72-1.24-1.91-1.66-0.45-0.99-0.18-0.22-0.12-1.4 0.08-1.5 3.13-5.73 0.85-6.7-1-0.43-2.79 0.71-3.75 1.08q-2.82 1.1-5.73 1.9c0.93-1.85 2.71-5.57-0.63-4.58-2.61 0.78-5.03 2.77-7.64 3.71 0.86-1.42 4.32-5.81 1.19-6.06-0.97-0.07-3.8 1.75-4.85 2.14-3.13 1.17-6.34 1.92-9.63 2.51-11.2 2.02-24.29 1.45-34.65 6.54-7.99 3.93-15.88 10.03-20.49 17.8-4.45 7.48-6.11 15.67-7.04 24.25-0.69 6.3-0.74 12.8-0.42 19.12 0.1 2.07 0.34 11.61 3.34 8.72 1.5-1.44 1.49-7.25 1.87-9.22 0.75-3.91 1.47-7.85 2.72-11.64 2.21-6.68 4.81-13.79 10.31-18.39 3.52-2.95 6-6.94 9.38-9.92 1.51-1.34 0.36-1.2 2.79-1.02 1.64 0.12 3.29 0.16 4.93 0.2 3.79 0.1 7.59 0.08 11.39 0.09 7.65 0.03 15.26 0.14 22.9-0.26 3.39-0.18 6.8-0.28 10.18-0.59 1.9-0.18 5.25-1.39 6.81-0.46 1.42 0.84 2.9 3.61 3.93 4.75 2.41 2.67 5.3 4.72 8.12 6.92 5.9 4.57 8.87 10.33 10.66 17.48 1.79 7.13 1.29 13.75 3.49 20.76 0.39 1.24 1.42 3.36 2.69 1.46 0.23-0.36 0.17-2.3 0.17-3.42 0-4.52 1.14-7.91 1.13-12.46-0.06-13.83-0.5-31.87-10.85-42.44z"/>
		</clipPath>
	</defs>
	<style>
		.s0 { fill: #ffc998 } 
		.s1 { opacity: .1;fill: #000000 } 
		.s2 { fill: #262e33 } 
		.s3 { fill: #000000 } 
		.s4 { fill: #331b0c } 
		.s5 { fill: #724133 } 
		.s6 { fill: #1f3140 } 
		.s7 { fill: #252c2f } 
	</style>
	<g id="Avataaar">
		<g id="Avataaar/Circle">
			<g>
				<g id="Mask">
				</g>
				<g id="Avataaar">
					<g id="Body">
						<g id="Clip-Path: Skin/ðŸ‘¶ðŸ½-03-Brown" clip-path="url(#cp1)">
							<g id="Skin/ðŸ‘¶ðŸ½-03-Brown">
								<g id="Color">
									<path fill-rule="evenodd" class="s0" d="m40 36h264v280h-264z"/>
								</g>
							</g>
						</g>
						<g id="Clip-Path: Neck-Shadow" clip-path="url(#cp2)">
							<path id="Neck-Shadow" fill-rule="evenodd" class="s1" d="m196 115v23c0 30.9-25.1 56-56 56-30.9 0-56-25.1-56-56v-23 15c0 30.9 25.1 56 56 56 30.9 0 56-25.1 56-56z"/>
						</g>
					</g>
					<g id="Clothing/Shirt-Crew-Neck">
						<g id="Clip-Path: Color/Palette/Gray-01" clip-path="url(#cp3)">
							<g id="Color/Palette/Gray-01">
								<path id="ðŸ–Color" fill-rule="evenodd" class="s2" d="m8 170h264v110h-264z"/>
							</g>
						</g>
						<g id="Clip-Path: Shadowy" clip-path="url(#cp4)">
							<g id="Shadowy" style="opacity: .09">
								<g id="Hola-ðŸ‘‹ðŸ¼">
									<path fill-rule="evenodd" class="s3" d="m140.5 228.8c-21.9 0-39.6-12.1-39.6-27 0-14.8 17.7-26.9 39.6-26.9 21.9 0 39.6 12.1 39.6 26.9 0 14.9-17.7 27-39.6 27z"/>
								</g>
							</g>
						</g>
					</g>
					<g id="Face">
						<g id="Mouth/Twinkle" style="opacity: .6">
							<path id="Mouth" class="s3" d="m126 150c0 5.4 6.2 9 14 9 7.8 0 14-3.6 14-9 0-1.1-0.9-2-2-2-1.3 0-1.9 0.9-2 2-1.2 2.9-4.3 4.7-10 5-5.7-0.3-8.8-2.1-10-5-0.1-1.1-0.7-2-2-2-1.1 0-2 0.9-2 2z"/>
						</g>
						<g id="Nose/Default" style="opacity: .16">
							<path id="Nose" fill-rule="evenodd" class="s3" d="m128 130c0 4.4 5.4 8 12 8 6.6 0 12-3.6 12-8"/>
						</g>
						<g id="Eyes/Default-ðŸ˜€" style="opacity: .6">
							<path id="Eye" fill-rule="evenodd" class="s3" d="m114 118c-3.3 0-6-2.7-6-6 0-3.3 2.7-6 6-6 3.3 0 6 2.7 6 6 0 3.3-2.7 6-6 6z"/>
							<path id="Eye" fill-rule="evenodd" class="s3" d="m166 118c-3.3 0-6-2.7-6-6 0-3.3 2.7-6 6-6 3.3 0 6 2.7 6 6 0 3.3-2.7 6-6 6z"/>
						</g>
						<g id="Eyebrow/Outline/Raised-Excited" style="opacity: .6">
							<g id="I-Browse">
								<path id="Eyebrow" class="s3" d="m100 99.1c1.5-9.5 14.1-16 23.2-11.8 1 0.5 2.2 0 2.6-1 0.5-1 0-2.2-1-2.6-11.5-5.3-26.9 2.6-28.8 14.8-0.1 1.1 0.6 2.1 1.7 2.3 1.1 0.2 2.1-0.6 2.3-1.7z"/>
								<path id="Eyebrow" class="s3" d="m180 99.1c-1.5-9.5-14.1-16-23.2-11.8-1 0.5-2.2 0-2.6-1-0.5-1 0-2.2 1-2.6 11.5-5.3 26.9 2.6 28.8 14.8 0.1 1.1-0.6 2.1-1.7 2.3-1.1 0.2-2.1-0.6-2.3-1.7z"/>
							</g>
						</g>
					</g>
					<g id="Top">
						<g id="Mask">
						</g>
						<g id="Clip-Path: Top/Short-Hair/Short-Flat" clip-path="url(#cp5)">
							<g id="Top/Short-Hair/Short-Flat">
								<g>
									<g id="Facial-Hair/Beard-Light">
										<path id="react-path-146" fill-rule="evenodd" class="s4" d="m196.6 114.1v20.4c0 15.3-9.5 38.5-30.7 47.2-5.2 2.2-16.9 5.3-25.9 5.3-9 0-20.7-3.5-25.9-5.6-21.2-8.7-30.7-31.6-30.7-46.9v-20.4c0 0-1.1-16.1 0.5-16.1 3.4 8.4 2.1 18.9 2.7 27.7 0.6 7.1 2.1 17.9 8.4 22.5 3.3 2.4 9.2 6.4 13.5 5.3 2.9-0.8 3.2-9.2 7-12.4 4.4-3.5 9.9-5.1 15.4-4.8 2.3 0.1 7.1 0 9.1 1.9 2-1.9 6.8-1.8 9.1-1.9 5.5-0.3 11 1.3 15.4 4.8 3.8 3.2 4.1 11.6 7 12.4 4.3 1.1 10.2-2.9 13.5-5.3 6.3-4.6 7.8-15.4 8.4-22.5 0.6-8.8-0.7-19.3 2.7-27.7 1.6 0 0.5 16.1 0.5 16.1zm-32.9 39.3c-1.2-3.4-3.2-7.1-6.9-8.2-3.8-1.1-9.3 0-13.2-0.7-1.3-0.3-2.7-0.7-3.6-1.5-0.9 0.8-2.3 1.2-3.6 1.5-3.9 0.7-9.4-0.4-13.2 0.7-3.7 1.1-5.7 4.8-6.9 8.2-2.4 6.5 1.5 12.5 6.3 16.8 2.5 2.3 5.2 3.3 8.5 2.6 0.6-0.2 3-4.6 8.9-4.6 5.9 0 8.3 4.4 8.9 4.6 3.3 0.7 6-0.3 8.5-2.6 4.8-4.3 8.7-10.3 6.3-16.8z"/>
										<g id="Clip-Path: Color/Hair/Brown" clip-path="url(#cp6)">
											<g id="Color/Hair/Brown">
												<g id="Color">
													<path fill-rule="evenodd" class="s5" d="m24 72h264v244h-264z"/>
												</g>
											</g>
										</g>
									</g>
									<path id="react-path-124" fill-rule="evenodd" class="s6" d="m187.1 39.9c-2.7-2.8-5.9-5.2-9-7.6q-1.1-0.8-2.1-1.6c-0.1-0.1-1.7-1.2-1.9-1.6-0.4-1-0.2-0.3-0.1-1.5 0.1-1.4 3.1-5.7 0.8-6.7-1-0.4-2.8 0.8-3.7 1.1q-2.8 1.1-5.8 1.9c1-1.8 2.8-5.5-0.6-4.5-2.6 0.7-5 2.7-7.6 3.7 0.8-1.5 4.3-5.9 1.2-6.1-1-0.1-3.8 1.8-4.9 2.1-3.1 1.2-6.3 2-9.6 2.6-11.2 2-24.3 1.4-34.7 6.5-8 3.9-15.8 10-20.5 17.8-4.4 7.5-6.1 15.7-7 24.2-0.7 6.3-0.7 12.8-0.4 19.2 0.1 2 0.3 11.6 3.3 8.7 1.5-1.5 1.5-7.3 1.9-9.2 0.7-4 1.5-7.9 2.7-11.7 2.2-6.7 4.8-13.8 10.3-18.4 3.6-2.9 6-6.9 9.4-9.9 1.5-1.3 0.4-1.2 2.8-1 1.6 0.1 3.3 0.2 4.9 0.2 3.8 0.1 7.6 0.1 11.4 0.1 7.7 0 15.3 0.1 22.9-0.3 3.4-0.2 6.8-0.3 10.2-0.6 1.9-0.1 5.3-1.4 6.8-0.4 1.4 0.8 2.9 3.6 3.9 4.7 2.5 2.7 5.3 4.7 8.2 6.9 5.9 4.6 8.8 10.4 10.6 17.5 1.8 7.2 1.3 13.8 3.5 20.8 0.4 1.2 1.4 3.3 2.7 1.4 0.2-0.3 0.2-2.3 0.2-3.4 0-4.5 1.1-7.9 1.1-12.4-0.1-13.9-0.5-31.9-10.9-42.5z"/>
									<g id="Clip-Path: Skin/ðŸ‘¶ðŸ½-03-Brown" clip-path="url(#cp7)">
										<g id="Skin/ðŸ‘¶ðŸ½-03-Brown">
											<g id="Color">
												<path fill-rule="evenodd" class="s5" d="m7 0h264v280h-264z"/>
											</g>
										</g>
									</g>
									<g id="Top/_Resources/Round">
										<g id="Lennon-Glasses">
											<path id="react-path-137" fill-rule="evenodd" class="s3" d="m149.5 101.4c3.9-7.9 12.1-13.4 21.5-13.4 8.9 0 16.7 4.9 20.8 12.1q0.4-0.1 0.7-0.1h8c1.4 0 2.5 1.1 2.5 2.5 0 1.4-1.1 2.5-2.5 2.5h-6.5c0.6 2.2 1 4.6 1 7 0 13.3-10.7 24-24 24-13.3 0-24-10.7-24-24q0-2.1 0.4-4.2c-0.1-4.3-3.5-7.8-7.5-7.8-3.8 0-6.9 2.9-7.5 6.8q0.6 2.5 0.6 5.2c0 13.3-10.7 24-24 24-13.3 0-24-10.7-24-24 0-2.4 0.4-4.8 1-7h-6.5c-1.4 0-2.5-1.1-2.5-2.5 0-1.4 1.1-2.5 2.5-2.5h8q0.3 0 0.7 0.1c4.1-7.2 11.9-12.1 20.8-12.1 9.4 0 17.5 5.3 21.4 13.2 2.1-3.2 5.5-5.2 9.5-5.2 4 0 7.5 2.1 9.6 5.4zm-40.5 30.6c11 0 20-9 20-20 0-11-9-20-20-20-11 0-20 9-20 20 0 11 9 20 20 20zm62 0c11 0 20-9 20-20 0-11-9-20-20-20-11 0-20 9-20 20 0 11 9 20 20 20z"/>
											<path id="react-path-137" fill-rule="evenodd" class="s7" d="m149.5 101.4c3.9-7.9 12.1-13.4 21.5-13.4 8.9 0 16.7 4.9 20.8 12.1q0.4-0.1 0.7-0.1h8c1.4 0 2.5 1.1 2.5 2.5 0 1.4-1.1 2.5-2.5 2.5h-6.5c0.6 2.2 1 4.6 1 7 0 13.3-10.7 24-24 24-13.3 0-24-10.7-24-24q0-2.1 0.4-4.2c-0.1-4.3-3.5-7.8-7.5-7.8-3.8 0-6.9 2.9-7.5 6.8q0.6 2.5 0.6 5.2c0 13.3-10.7 24-24 24-13.3 0-24-10.7-24-24 0-2.4 0.4-4.8 1-7h-6.5c-1.4 0-2.5-1.1-2.5-2.5 0-1.4 1.1-2.5 2.5-2.5h8q0.3 0 0.7 0.1c4.1-7.2 11.9-12.1 20.8-12.1 9.4 0 17.5 5.3 21.4 13.2 2.1-3.2 5.5-5.2 9.5-5.2 4 0 7.5 2.1 9.6 5.4zm-40.5 30.6c11 0 20-9 20-20 0-11-9-20-20-20-11 0-20 9-20 20 0 11 9 20 20 20zm62 0c11 0 20-9 20-20 0-11-9-20-20-20-11 0-20 9-20 20 0 11 9 20 20 20z"/>
										</g>
									</g>
								</g>
							</g>
						</g>
					</g>
				</g>
			</g>
		</g>
	</g>
</svg>