<svg version="1.2" xmlns="http://www.w3.org/2000/svg" viewBox="0 0 280 280" width="5rem" height="5rem">
	<title>nico</title>
	<defs>
		<clipPath clipPathUnits="userSpaceOnUse" id="cp1">
			<path d="m164 180.61v18.39h4c39.76 0 72 32.24 72 72v9h-200v-9c0-39.76 32.24-72 72-72h4v-18.39c-17.24-8.19-29.63-24.92-31.69-44.73-5.83-0.82-10.31-5.83-10.31-11.88v-14c0-5.95 4.32-10.88 10-11.83v-6.17c0-30.93 25.07-56 56-56 30.93 0 56 25.07 56 56v6.17c5.68 0.95 10 5.88 10 11.83v14c0 6.05-4.48 11.06-10.31 11.88-2.06 19.81-14.45 36.54-31.69 44.73z"/>
		</clipPath>
		<clipPath clipPathUnits="userSpaceOnUse" id="cp2">
			<path d="m164 180.61v18.39h4c39.76 0 72 32.24 72 72v9h-200v-9c0-39.76 32.24-72 72-72h4v-18.39c-17.24-8.19-29.63-24.92-31.69-44.73-5.83-0.82-10.31-5.83-10.31-11.88v-14c0-5.95 4.32-10.88 10-11.83v-6.17c0-30.93 25.07-56 56-56 30.93 0 56 25.07 56 56v6.17c5.68 0.95 10 5.88 10 11.83v14c0 6.05-4.48 11.06-10.31 11.88-2.06 19.81-14.45 36.54-31.69 44.73z"/>
		</clipPath>
		<clipPath clipPathUnits="userSpaceOnUse" id="cp3">
			<path d="m173.96 199.29c45.27 3.15 67.9 33.26 67.9 71.02v9.69h-203.17l-0.45-10.6c0-38.09 28.5-70.58 68.81-70.18 0.37 0-0.05 0.75-0.05 1.13 0 11.86 15 21.48 33.5 21.48 18.5 0 33.5-9.62 33.5-21.48 0-0.36-0.39-1.08-0.04-1.06z"/>
		</clipPath>
		<clipPath clipPathUnits="userSpaceOnUse" id="cp4">
			<path d="m173.96 199.29c36.98 3.03 66.04 34 66.04 71.76v8.95h-200v-8.95c0-38.1 29.59-69.29 67.05-71.83q-0.05 0.56-0.05 1.13c0 11.86 15 21.48 33.5 21.48 18.5 0 33.5-9.62 33.5-21.48q0-0.53-0.04-1.06z"/>
		</clipPath>
		<clipPath clipPathUnits="userSpaceOnUse" id="cp5">
			<path d="m8 0h264v280h-264z"/>
		</clipPath>
		<clipPath clipPathUnits="userSpaceOnUse" id="cp6">
			<path d="m198.37 118.49c0.46 7.1 0.98 14.04 0.31 21.14-1.17 12.24-2.38 27.6-11.71 36.96-8.44 8.45-20.68 10.22-31.24 15.55-1.21 0.61-2.78 1.35-4.48 2-1.93 1.69-6.17 2.86-11.08 2.86-4.68 0-8.74-1.07-10.79-2.63-1.95-0.69-3.75-1.54-5.11-2.23-10.56-5.33-22.8-7.1-31.24-15.55-9.33-9.36-10.54-24.72-11.71-36.96-0.67-7.1-0.15-14.04 0.31-21.14 0.11-1.74 0.98-20.49 1.98-20.49 3.42 14.07 5 28.43 7.48 42.67q0.78 4.45 1.69 8.88c0.12 0.62 0.25 2.92 0.86 3.21 1.85 0.89 5.62-3.81 6.63-4.87 2.53-2.67 5.04-5.36 8.13-7.45 6.24-4.23 13.53-6.73 21.13-7.32 3.18-0.25 7.48 0.18 10.47 1.99 3-1.81 7.29-2.24 10.47-1.99 7.6 0.59 14.89 3.09 21.13 7.32 3.08 2.09 5.6 4.78 8.13 7.45 1.01 1.06 4.78 5.76 6.63 4.87 0.61-0.29 0.74-2.59 0.86-3.21q0.91-4.43 1.69-8.88c2.48-14.24 4.06-28.6 7.48-42.67 1 0 1.87 18.75 1.98 20.49zm-38.38 32.41c-3.86-5.65-9.09-2.92-14.94-3.56-1.6-0.18-3.19-0.62-4.55-1.34-1.35 0.72-2.95 1.16-4.54 1.34-5.85 0.64-11.09-2.09-14.95 3.56-2.71 3.97-3.92 11.03-1.02 15.23 3.87 5.59 6.76 1.82 10.88-1.25 2.48-1.85 6.18-4.15 9.63-4.04 3.46-0.11 7.16 2.19 9.64 4.04 4.12 3.07 7.01 6.84 10.88 1.25 2.9-4.2 1.69-11.26-1.03-15.23z"/>
		</clipPath>
		<clipPath clipPathUnits="userSpaceOnUse" id="cp7">
			<path d="m174.31 35.01c-20.19-11.7-40.18-9.79-55.27-5.98-15.1 3.81-24.02 14.62-31.68 30.62-3.76 7.85-5.99 17.14-6.34 25.83-0.13 3.41 0.33 6.94 1.25 10.22 0.33 1.21 2.15 5.39 2.65 2.01 0.17-1.13-0.44-2.68-0.5-3.87-0.08-1.57 0.01-3.16 0.11-4.73 0.2-2.92 0.73-5.79 1.65-8.59 1.33-3.98 3.02-8.31 5.61-11.67 6.4-8.33 17.48-8.8 26.28-13.39-0.77 1.41-3.71 3.68-2.69 5.27 0.7 1.09 3.37 0.76 4.64 0.72 3.35-0.09 6.71-0.67 10.02-1.14 5.22-0.75 10.1-2.26 15.01-4.09 4.01-1.5 8.6-2.89 11.62-6.08 4.87 5.05 11.14 9.79 17.4 13 5.62 2.88 14.68 4.32 18.11 10.16 4.07 6.91 2.2 15.41 3.44 22.9 0.47 2.85 1.54 2.79 2.13 0.24 1-4.33 1.47-8.83 1.15-13.28-0.72-10.05-4.4-36.45-24.59-48.15z"/>
		</clipPath>
	</defs>
	<style>
		.s0 { fill: #d0c6ac } 
		.s1 { fill: #edb98a } 
		.s2 { opacity: .1;fill: #000000 } 
		.s3 { fill: #e6e6e6 } 
		.s4 { fill: #65c9ff } 
		.s5 { fill: #000000 } 
		.s6 { fill: #252e32 } 
		.s7 { fill: #4a312c } 
		.s8 { fill: #28354b } 
		.s9 { fill: #252c2f } 
	</style>
	<g id="Avataaar">
		<g id="Avataaar/Circle">
			<g>
				<g id="Mask">
				</g>
				<g id="Avataaar">
					<g id="Body">
						<path id="react-path-3" fill-rule="evenodd" class="s0" d="m164 180.6v18.4h4c39.8 0 72 32.2 72 72v9h-200v-9c0-39.8 32.2-72 72-72h4v-18.4c-17.2-8.2-29.6-24.9-31.7-44.7-5.8-0.8-10.3-5.8-10.3-11.9v-14c0-5.9 4.3-10.9 10-11.8v-6.2c0-30.9 25.1-56 56-56 30.9 0 56 25.1 56 56v6.2c5.7 0.9 10 5.9 10 11.8v14c0 6.1-4.5 11.1-10.3 11.9-2.1 19.8-14.5 36.5-31.7 44.7z"/>
						<g id="Clip-Path: Skin/ðŸ‘¶ðŸ½-03-Brown" clip-path="url(#cp1)">
							<g id="Skin/ðŸ‘¶ðŸ½-03-Brown">
								<g id="Color">
									<path fill-rule="evenodd" class="s1" d="m40 36h264v280h-264z"/>
								</g>
							</g>
						</g>
						<g id="Clip-Path: Neck-Shadow" clip-path="url(#cp2)">
							<path id="Neck-Shadow" fill-rule="evenodd" class="s2" d="m196 115v23c0 30.9-25.1 56-56 56-30.9 0-56-25.1-56-56v-23 15c0 30.9 25.1 56 56 56 30.9 0 56-25.1 56-56z"/>
						</g>
					</g>
					<g id="Clothing/Shirt-Crew-Neck">
						<path id="react-path-109" fill-rule="evenodd" class="s3" d="m174 199.3c36.9 3 66 34 66 71.8v8.9h-200v-8.9c0-38.1 29.6-69.3 67-71.9q0 0.6 0 1.1c0 11.9 15 21.5 33.5 21.5 18.5 0 33.5-9.6 33.5-21.5q0-0.5 0-1z"/>
						<g id="Clip-Path: Color/Palette/Gray-01" clip-path="url(#cp3)">
							<g id="Color/Palette/Gray-01">
								<path id="ðŸ–Color" fill-rule="evenodd" class="s4" d="m8 170h264v110h-264z"/>
							</g>
						</g>
						<g id="Clip-Path: Shadowy" clip-path="url(#cp4)">
							<g id="Shadowy" style="opacity: .09">
								<g id="Hola-ðŸ‘‹ðŸ¼">
									<path fill-rule="evenodd" class="s5" d="m140.5 228.8c-21.9 0-39.6-12.1-39.6-27 0-14.8 17.7-26.9 39.6-26.9 21.9 0 39.6 12.1 39.6 26.9 0 14.9-17.7 27-39.6 27z"/>
								</g>
							</g>
						</g>
					</g>
					<g id="Face">
						<g id="Mouth/Twinkle" style="opacity: .6">
							<path id="Mouth" class="s5" d="m126 150c0 5.4 6.2 9 14 9 7.8 0 14-3.6 14-9 0-1.1-0.9-2-2-2-1.3 0-1.9 0.9-2 2-1.2 2.9-4.3 4.7-10 5-5.7-0.3-8.8-2.1-10-5-0.1-1.1-0.7-2-2-2-1.1 0-2 0.9-2 2z"/>
						</g>
						<g id="Nose/Default" style="opacity: .16">
							<path id="Nose" fill-rule="evenodd" class="s5" d="m128 130c0 4.4 5.4 8 12 8 6.6 0 12-3.6 12-8"/>
						</g>
						<g id="Eyes/Default-ðŸ˜€" style="opacity: .6">
							<path id="Eye" fill-rule="evenodd" class="s5" d="m114 118c-3.3 0-6-2.7-6-6 0-3.3 2.7-6 6-6 3.3 0 6 2.7 6 6 0 3.3-2.7 6-6 6z"/>
							<path id="Eye" fill-rule="evenodd" class="s5" d="m166 118c-3.3 0-6-2.7-6-6 0-3.3 2.7-6 6-6 3.3 0 6 2.7 6 6 0 3.3-2.7 6-6 6z"/>
						</g>
						<g id="Eyebrow/Outline/Up-Down" style="opacity: .6">
							<path id="Eyebrow" class="s5" d="m99.6 96.2c4.5-6.4 14-9.5 23.7-6.4 1.1 0.3 2.2-0.2 2.6-1.3 0.3-1-0.3-2.2-1.3-2.5-11.4-3.7-22.8 0.1-28.3 7.8-0.6 0.9-0.4 2.2 0.5 2.8 0.9 0.7 2.2 0.5 2.8-0.4z"/>
							<path id="Eyebrow" class="s5" d="m180.4 103.2c-3.9-5.6-14.7-8.6-23.9-6.4-1.1 0.3-2.2-0.4-2.4-1.4-0.3-1.1 0.4-2.2 1.4-2.5 10.8-2.6 23.2 1 28.1 7.9 0.7 0.9 0.5 2.2-0.4 2.8-0.9 0.7-2.2 0.5-2.8-0.4z"/>
						</g>
					</g>
					<g id="Top">
						<g id="Mask">
						</g>
						<g id="Clip-Path: Top/Short-Hair/Short-Round" clip-path="url(#cp5)">
							<g id="Top/Short-Hair/Short-Round">
								<g>
									<g id="Facial-Hair/Beard-Medium">
										<path id="react-path-94" fill-rule="evenodd" class="s6" d="m198.4 118.5c0.4 7.1 1 14 0.3 21.1-1.2 12.3-2.4 27.6-11.7 37-8.5 8.4-20.7 10.2-31.3 15.5-1.2 0.7-2.7 1.4-4.4 2-2 1.7-6.2 2.9-11.1 2.9-4.7 0-8.8-1.1-10.8-2.6-2-0.7-3.8-1.6-5.1-2.3-10.6-5.3-22.8-7.1-31.3-15.5-9.3-9.4-10.5-24.7-11.7-37-0.7-7.1-0.1-14 0.3-21.1 0.1-1.8 1-20.5 2-20.5 3.4 14.1 5 28.4 7.5 42.7q0.8 4.4 1.7 8.8c0.1 0.7 0.2 3 0.8 3.3 1.9 0.8 5.7-3.9 6.7-4.9 2.5-2.7 5-5.4 8.1-7.5 6.2-4.2 13.5-6.7 21.1-7.3 3.2-0.2 7.5 0.2 10.5 2 3-1.8 7.3-2.2 10.5-2 7.6 0.6 14.9 3.1 21.1 7.3 3.1 2.1 5.6 4.8 8.1 7.5 1 1 4.8 5.7 6.7 4.9 0.6-0.3 0.7-2.6 0.8-3.3q0.9-4.4 1.7-8.8c2.5-14.3 4.1-28.6 7.5-42.7 1 0 1.9 18.7 2 20.5zm-38.4 32.4c-3.9-5.6-9.1-2.9-15-3.6-1.5-0.1-3.1-0.6-4.5-1.3-1.3 0.7-2.9 1.2-4.5 1.3-5.9 0.7-11.1-2-15 3.6-2.7 4-3.9 11-1 15.2 3.9 5.6 6.8 1.8 10.9-1.2 2.5-1.9 6.1-4.2 9.6-4.1 3.5-0.1 7.2 2.2 9.6 4.1 4.2 3 7.1 6.8 10.9 1.2 2.9-4.2 1.7-11.2-1-15.2z"/>
										<g id="Clip-Path: Color/Hair/Brown" clip-path="url(#cp6)">
											<g id="Color/Hair/Brown">
												<g id="Color">
													<path fill-rule="evenodd" class="s7" d="m24 72h264v244h-264z"/>
												</g>
											</g>
										</g>
									</g>
									<path id="react-path-68" fill-rule="evenodd" class="s8" d="m174.3 35c-20.2-11.7-40.2-9.8-55.3-6-15.1 3.8-24 14.7-31.6 30.6-3.8 7.9-6 17.2-6.4 25.9-0.1 3.4 0.3 6.9 1.3 10.2 0.3 1.2 2.1 5.4 2.6 2 0.2-1.1-0.4-2.7-0.5-3.9-0.1-1.5 0-3.1 0.1-4.7 0.2-2.9 0.8-5.8 1.7-8.6 1.3-4 3-8.3 5.6-11.7 6.4-8.3 17.5-8.8 26.3-13.3-0.8 1.4-3.7 3.6-2.7 5.2 0.7 1.1 3.3 0.8 4.6 0.8 3.4-0.1 6.7-0.7 10-1.2 5.3-0.7 10.1-2.2 15-4.1 4.1-1.5 8.7-2.9 11.7-6.1 4.8 5.1 11.1 9.8 17.4 13 5.6 2.9 14.6 4.4 18.1 10.2 4 6.9 2.2 15.4 3.4 22.9 0.5 2.9 1.6 2.8 2.2 0.2 0.9-4.3 1.4-8.8 1.1-13.2-0.7-10.1-4.4-36.5-24.6-48.2z"/>
									<g id="Clip-Path: Skin/ðŸ‘¶ðŸ½-03-Brown" clip-path="url(#cp7)">
										<g id="Skin/ðŸ‘¶ðŸ½-03-Brown">
											<g id="Color">
												<path fill-rule="evenodd" class="s7" d="m7 0h264v280h-264z"/>
											</g>
										</g>
									</g>
									<g id="Top/_Resources/Prescription-02">
										<g id="Wayfarers">
											<path id="Left" class="s9" d="m109 133h-2.8c-13.9 0-22.2-7.7-22.2-20.5 0-10.4 1.8-20.5 23.5-20.5h3c21.7 0 23.5 10.1 23.5 20.5 0 12.1-10.3 20.5-25 20.5zm-1.6-35c-19.4 0-19.4 6.8-19.4 15.5 0 7.1 3.1 15.5 18 15.5h3c12.4 0 21-6.4 21-15.5 0-8.7 0-15.5-19.4-15.5z"/>
											<path id="Right" class="s9" d="m171 133h-2.8c-13.9 0-22.2-7.7-22.2-20.5 0-10.4 1.8-20.5 23.5-20.5h3c21.7 0 23.5 10.1 23.5 20.5 0 12.1-10.3 20.5-25 20.5zm-1.6-35c-19.4 0-19.4 6.8-19.4 15.5 0 7.1 3.1 15.5 18 15.5h3c12.4 0 21-6.4 21-15.5 0-8.7 0-15.5-19.4-15.5z"/>
											<path id="Stuff" class="s9" d="m78 97.8c0.6-0.7 8.2-5.8 29.5-5.8 17.9 0 21.6 1.9 27.4 4.7l0.4 0.2c0.4 0.1 2.4 0.8 4.8 0.9 2.1-0.1 4-0.7 4.5-0.9 6.6-3.2 13-4.9 27.9-4.9 21.3 0 28.9 5.1 29.5 5.8 1.7 0 3 1.3 3 2.9v2.8c0 1.6-1.3 2.9-3 2.9 0 0-6.9 0-6.9 2.9 0 2.9-1.9-4.2-1.9-5.8v-2.8c-3.6-1.3-10.1-3.9-20.7-3.9-11.8 0-17.7 2.1-22.8 4.2l0.1 0.1v2l-2.3 5.3-2.7-1c-0.2-0.1-0.8-0.3-1.5-0.5-2-0.5-4.1-0.6-6-0.3q-1 0.2-1.9 0.7l-2.6 1.3-2.7-5.2 0.1-2.3 0.1-0.2c-4.3-2-8.4-4.1-22.8-4.1-10.6 0-17.1 2.6-20.7 3.9v2.8c0 1.6-2.9 8.7-2.9 5.8 0-2.9-5.9-2.9-5.9-2.9-1.7 0-3-1.3-3-2.9v-2.8c0-1.6 1.3-2.9 3-2.9z"/>
										</g>
									</g>
								</g>
							</g>
						</g>
					</g>
				</g>
			</g>
		</g>
	</g>
</svg>