<svg version="1.2" xmlns="http://www.w3.org/2000/svg" viewBox="0 0 417 417" width="5rem" height="5rem">
	<title>rocket-svgrepo-com</title>
	<style>
		.s0 { fill: #ff7124 } 
		.s1 { fill: #ffffff } 
		.s2 { fill: #8ecac1 } 
		.s3 { fill: #e6b263 } 
		.s4 { fill: #000000 } 
	</style>
	<g id="rocket">
		<g id="colors">
			<g>
				<path class="s0" d="m94.4 89.9c22.8-5.3 46.9-3.7 69 4.7l-68.5 64.6c-7.2-22.5-7.3-46.7-0.5-69.3z"/>
			</g>
			<g>
				<path class="s1" d="m203.5 279l-59.3-54.1-22.9-20.9c-12.5-13.2-21.3-28.6-26.4-44.8l68.5-64.6c15.9 6.2 30.6 15.9 43.1 29.1l19.5 24.1 50.5 62.4-18.3 17.2-18.2 17.2-18.3 17.1zm-5.1-123.6c-11.6-12.5-31.3-13.1-43.7-1.3-12.5 11.7-13.1 31.3-1.3 43.7 11.6 12.5 31.3 13.1 43.7 1.4 12.5-11.7 13.1-31.4 1.3-43.8z"/>
			</g>
			<g>
				<path class="s1" d="m226 147.8c27.4-0.2 54.8 10.6 75.1 32 6.2 6.6 11.3 13.8 15.4 21.4l-40 9z"/>
			</g>
			<g>
				<path class="s2" d="m154.6 154c12.5-11.7 32.1-11.2 43.8 1.2 11.8 12.6 11.1 32.2-1.3 43.9-12.5 11.7-32 11.1-43.8-1.3-11.7-12.4-11.1-32.1 1.3-43.8z"/>
			</g>
			<g>
				<path class="s3" d="m276.5 210.2l8.1 24.2c2.2 6.6 0.3 14-4.8 18.8l-4.2 3.9-17.4-29.7z"/>
			</g>
			<g>
				<path fill-rule="evenodd" class="s3" d="m258.2 227.4l17.4 29.7-12.6 11.9-23-24.4z"/>
			</g>
			<g>
				<path class="s1" d="m144.2 224.9l59.3 54.1-11.4 39.4c-7.4-4.6-14.2-10.2-20.4-16.7-20.2-21.5-29.4-49.5-27.5-76.8z"/>
			</g>
			<g>
				<path fill-rule="evenodd" class="s3" d="m240 244.6l23 24.4-12.6 11.9-28.7-19.2z"/>
			</g>
			<g>
				<path class="s3" d="m221.7 261.7l28.7 19.2-4.2 4c-5.1 4.9-12.6 6.2-19.1 3.6l-23.6-9.5z"/>
			</g>
		</g>
		<g id="layout">
			<g id="flamme3">
				<path class="s4" d="m281.1 318c0 1.6-0.6 3.1-1.9 4.3-2.3 2.3-6.1 2.1-8.4-0.2l-11.9-12.8c-2.3-2.4-2.1-6.2 0.2-8.5 2.5-2.2 6.2-2.1 8.5 0.3l11.9 12.7c1.2 1.2 1.7 2.8 1.6 4.2z"/>
			</g>
			<g id="flamme2">
				<path class="s4" d="m327 330.7c-0.1 1.6-0.6 3.1-1.9 4.2-2.4 2.3-6.2 2.2-8.4-0.2l-39.9-42.3c-2.2-2.4-2.2-6.2 0.3-8.4 2.3-2.3 6.2-2.2 8.5 0.2l39.7 42.3c1.2 1.2 1.8 2.7 1.7 4.2z"/>
			</g>
			<g id="flamme1">
				<path class="s4" d="m325 292.8c-0.1 1.5-0.7 3-1.8 4.1-2.5 2.3-6.3 2.2-8.6-0.2l-19.9-21.2c-2.3-2.4-2.1-6.1 0.2-8.4 2.5-2.3 6.3-2.2 8.5 0.2l19.9 21.1c1.2 1.3 1.7 2.8 1.7 4.4z"/>
			</g>
			<g>
				<path class="s4" d="m282.5 210.4c-0.1 1.4-0.7 3-1.9 4.2l-73 68.8c-2.5 2.2-6.2 2.1-8.5-0.3-2.3-2.4-2.2-6.3 0.3-8.5l73-68.8c2.3-2.3 6.2-2.2 8.4 0.3 1.2 1.1 1.7 2.7 1.7 4.3z"/>
			</g>
			<g>
				<path class="s4" d="m212.8 177.6c-0.3 9.9-4.4 19.1-11.5 25.8-7.3 6.8-16.7 10.4-26.5 10.1-9.9-0.3-19-4.4-25.9-11.6-6.8-7.2-10.3-16.6-10-26.5 0.3-9.9 4.4-19 11.6-25.8 7.2-6.8 16.6-10.4 26.4-10.1 9.9 0.3 19.1 4.5 25.8 11.7 6.8 7.2 10.4 16.6 10.1 26.4zm-61.9-1.8c-0.2 6.6 2.2 13 6.8 17.9 4.5 4.8 10.7 7.6 17.4 7.8 6.7 0.2 13.1-2.2 17.9-6.8 4.9-4.6 7.6-10.7 7.8-17.5 0.3-6.6-2.2-13-6.7-17.8-4.6-4.9-10.8-7.6-17.5-7.8-6.7-0.2-13 2.1-17.9 6.7-4.8 4.6-7.7 10.8-7.8 17.5z"/>
			</g>
			<g>
				<path class="s4" d="m256.3 281.1c0.1 1.1-0.2 2.2-0.9 3.2-1.9 2.7-5.6 3.4-8.3 1.6l-28.7-19.1c-2.8-1.9-3.5-5.6-1.7-8.3 1.9-2.8 5.5-3.5 8.3-1.7l28.7 19.2c1.8 1.1 2.8 3.1 2.6 5.1z"/>
			</g>
			<g>
				<path class="s4" d="m269 269.2c0 1.6-0.7 3-1.9 4.2-2.4 2.2-6.2 2.2-8.5-0.3l-23-24.4c-2.3-2.4-2.2-6.2 0.2-8.5 2.5-2.3 6.2-2.2 8.6 0.3l23 24.4c1.1 1.2 1.7 2.7 1.6 4.3z"/>
			</g>
			<g>
				<path class="s4" d="m281.6 257.3c0 2-1.1 3.9-2.9 5.1-2.9 1.6-6.6 0.6-8.3-2.2l-17.4-29.8c-1.6-2.8-0.7-6.6 2.2-8.2 2.9-1.7 6.5-0.8 8.2 2.1l17.4 29.9c0.6 0.9 0.9 2 0.8 3.1z"/>
			</g>
			<g>
				<path class="s4" d="m150.2 225c0 1.4-0.6 2.9-1.6 4-2.2 2.4-6 2.6-8.4 0.3l-23-20.9c-2.4-2.2-2.6-6-0.3-8.4 2.2-2.5 6-2.6 8.4-0.4l23 20.9c1.3 1.2 2 2.9 1.9 4.5z"/>
			</g>
			<g>
				<path class="s4" d="m291.5 240.8c-0.2 6.3-2.8 12.3-7.6 16.8l-4 3.7q-0.1 0.1-0.2 0.2l-29.4 27.8c-6.8 6.3-16.8 8.2-25.4 4.7l-23.7-9.5q-1-0.4-1.8-1.1l-59.2-54.1c-2.5-2.2-2.6-5.9-0.5-8.5 2.3-2.4 6.2-2.6 8.6-0.3l58.4 53.3 22.7 9.1c4.2 1.8 9.3 0.8 12.6-2.3l29.3-27.7q0.1-0.1 0.2-0.1l4.2-4c3.5-3.2 4.7-8.1 3.2-12.5l-7.8-23.1-69.2-85.7c-2.1-2.6-1.7-6.4 0.8-8.5 2.6-2.1 6.5-1.7 8.5 0.8l69.9 86.6q0.7 0.8 1.1 1.9l8.1 24.2c0.9 2.7 1.3 5.5 1.2 8.3z"/>
			</g>
			<g>
				<path class="s4" d="m212.6 123.8c-0.1 1.6-0.7 3.1-2 4.2-2.3 2.3-6.2 2.2-8.4-0.2-11.6-12.2-25.4-21.6-41-27.6-19.9-7.6-41.3-9.3-62-5.2-5.5 20.7-5 42 1.4 62.4 5 15.9 13.5 30.2 25 42.4 2.3 2.5 2.2 6.3-0.2 8.6-2.4 2.2-6.2 2.1-8.4-0.3-12.9-13.6-22.2-29.5-27.9-47.1-7.4-23.7-7.6-48.9-0.5-72.7 0.6-2.1 2.3-3.7 4.4-4.1 24.2-5.7 49.2-4.1 72.5 4.9 17.3 6.6 32.6 16.9 45.4 30.5 1.2 1.2 1.7 2.7 1.7 4.2z"/>
			</g>
			<g>
				<path class="s4" d="m169.4 94.8c-0.1 1.6-0.8 3.1-1.9 4.2l-68.5 64.6c-2.4 2.2-6.2 2-8.5-0.3-2.2-2.5-2.1-6.2 0.3-8.5l68.5-64.6c2.4-2.2 6.2-2 8.4 0.3 1.2 1.3 1.8 2.8 1.7 4.3z"/>
			</g>
			<g>
				<path class="s4" d="m209.5 279.2q-0.1 0.7-0.3 1.4l-11.3 39.5c-0.5 1.8-1.9 3.3-3.6 3.9-1.7 0.6-3.7 0.5-5.3-0.5-7.9-4.8-15.2-10.9-21.7-17.7-20.5-21.8-31.1-51.4-29.1-81.2 0.2-3.3 2.9-5.8 6.2-5.7 3.3 0.1 5.9 2.9 5.8 6.1l-0.1 0.1q0.1 0.1 0.1 0.2c-1.8 26.6 7.7 52.9 25.9 72.3 3.8 4.1 8.1 7.9 12.5 11.2l9-31.4c0.7-2.6 3.1-4.5 6-4.4 3.3 0.1 5.9 2.8 5.9 6.2z"/>
			</g>
			<g>
				<path class="s4" d="m322.5 201.4q0 1.2-0.5 2.3c-0.8 1.7-2.3 2.9-4.2 3.3l-40 9c-3.2 0.7-6.4-1.3-7.2-4.6-0.8-3.1 1.3-6.4 4.6-7.1l32-7.1c-3.2-4.7-6.6-9.1-10.5-13.3-18.2-19.4-44-30.3-70.5-30.1-3.4 0-6.1-2.6-6.1-5.9-0.1-3.3 2.6-6 5.9-6 29.9-0.3 58.9 12 79.4 33.8 6.4 6.9 12 14.5 16.4 22.7 0.5 0.9 0.7 2 0.7 3z"/>
			</g>
		</g>
	</g>
</svg>