<svg version="1.2" xmlns="http://www.w3.org/2000/svg" viewBox="0 0 1920 1920" width="4rem" height="4rem">
	<title>slides</title>
	<style>
		.s0 { fill: #ffffff } 
		.s1 { fill: #000000 } 
	</style>
	<path id="Calque 1" class="s0" d="m1459 196l399 405 10 1131-1803 21 17-1566z"/>
	<path id="Layer copy" fill-rule="evenodd" class="s1" d="m1920 611.5v1195.6h-1920v-1694.1h1421.5c44.5 0 88.2 18.1 119.7 49.6l329.2 329.2c32 32 49.6 74.5 49.6 119.7zm-1807.1-385.6v1468.3h1694.2v-1016.5h-451.8v-451.8c0 0-1242.4 0-1242.4 0zm1073 564.7c218 0 395.3 177.3 395.3 395.3 0 218-177.3 395.3-395.3 395.3-218 0-395.3-177.3-395.3-395.3 0-218 177.3-395.3 395.3-395.3zm-282.4 395.3c0 155.8 126.6 282.4 282.4 282.4 57.1 0 110.2-17.3 154.7-46.7l-211.2-203.6v-308.7c-128.7 26.2-225.9 140.3-225.9 276.6zm-225.9-395.3h-338.8v-112.9h338.8zm338.9-338.8v112.9h-677.7v-112.9zm451.8 112.9h315.4l-315.4-315.4zm-47.4 777.3c29.9-44.7 47.4-98.5 47.4-156.2 0-136.3-97.1-250.4-225.9-276.6v260.7z"/>
</svg>